<?xml version="1.0" encoding="UTF-8" standalone="no"?>
<!-- Created with Inkscape (http://www.inkscape.org/) -->

<svg
   xmlns:ns0="http://www.iki.fi/pav/software/textext/"
   xmlns:dc="http://purl.org/dc/elements/1.1/"
   xmlns:cc="http://creativecommons.org/ns#"
   xmlns:rdf="http://www.w3.org/1999/02/22-rdf-syntax-ns#"
   xmlns:svg="http://www.w3.org/2000/svg"
   xmlns="http://www.w3.org/2000/svg"
   xmlns:sodipodi="http://sodipodi.sourceforge.net/DTD/sodipodi-0.dtd"
   xmlns:inkscape="http://www.inkscape.org/namespaces/inkscape"
   version="1.1"
   id="svg1877"
   xml:space="preserve"
   width="224.81726"
   height="284.18262"
   viewBox="0 0 224.81726 284.18261"
   sodipodi:docname="axis-angle.svg"
   inkscape:version="0.92.3 (2405546, 2018-03-11)"><sodipodi:namedview
     pagecolor="#ffffff"
     bordercolor="#666666"
     borderopacity="1"
     objecttolerance="10"
     gridtolerance="10"
     guidetolerance="10"
     inkscape:pageopacity="0"
     inkscape:pageshadow="2"
     inkscape:window-width="1919"
     inkscape:window-height="1040"
     id="namedview1879"
     showgrid="false"
     inkscape:zoom="1.0105598"
     inkscape:cx="308.91282"
     inkscape:cy="106.26834"
     inkscape:window-x="1"
     inkscape:window-y="0"
     inkscape:window-maximized="1"
     inkscape:current-layer="g1885"
     fit-margin-top="0"
     fit-margin-left="0"
     fit-margin-right="0"
     fit-margin-bottom="0" /><metadata
     id="metadata1883"><rdf:RDF><cc:Work
         rdf:about=""><dc:format>image/svg+xml</dc:format><dc:type
           rdf:resource="http://purl.org/dc/dcmitype/StillImage" /><dc:title></dc:title></cc:Work></rdf:RDF></metadata><defs
     id="defs1881"><marker
       inkscape:stockid="Arrow1Mend"
       orient="auto"
       refY="0"
       refX="0"
       id="marker2328"
       style="overflow:visible"
       inkscape:isstock="true"><path
         id="path2326"
         d="M 0,0 5,-5 -12.5,0 5,5 Z"
         style="fill:#ff0000;fill-opacity:1;fill-rule:evenodd;stroke:#ff0000;stroke-width:1.00000003pt;stroke-opacity:1"
         transform="matrix(-0.4,0,0,-0.4,-4,0)"
         inkscape:connector-curvature="0" /></marker><marker
       inkscape:stockid="Arrow1Mend"
       orient="auto"
       refY="0"
       refX="0"
       id="marker2324"
       style="overflow:visible"
       inkscape:isstock="true"><path
         id="path2322"
         d="M 0,0 5,-5 -12.5,0 5,5 Z"
         style="fill:#0000ff;fill-opacity:1;fill-rule:evenodd;stroke:#0000ff;stroke-width:1.00000003pt;stroke-opacity:1"
         transform="matrix(-0.4,0,0,-0.4,-4,0)"
         inkscape:connector-curvature="0" /></marker><marker
       inkscape:stockid="Arrow1Mend"
       orient="auto"
       refY="0"
       refX="0"
       id="marker2320"
       style="overflow:visible"
       inkscape:isstock="true"><path
         id="path2318"
         d="M 0,0 5,-5 -12.5,0 5,5 Z"
         style="fill:#008000;fill-opacity:1;fill-rule:evenodd;stroke:#008000;stroke-width:1.00000003pt;stroke-opacity:1"
         transform="matrix(-0.4,0,0,-0.4,-4,0)"
         inkscape:connector-curvature="0" /></marker><marker
       inkscape:stockid="Arrow1Mend"
       orient="auto"
       refY="0"
       refX="0"
       id="Arrow1Mend"
       style="overflow:visible"
       inkscape:isstock="true"><path
         id="path1934"
         d="M 0,0 5,-5 -12.5,0 5,5 Z"
         style="fill:#000000;fill-opacity:1;fill-rule:evenodd;stroke:#000000;stroke-width:1.00000003pt;stroke-opacity:1"
         transform="matrix(-0.4,0,0,-0.4,-4,0)"
         inkscape:connector-curvature="0" /></marker><marker
       inkscape:stockid="Arrow1Mstart"
       orient="auto"
       refY="0"
       refX="0"
       id="Arrow1Mstart"
       style="overflow:visible"
       inkscape:isstock="true"><path
         id="path1931"
         d="M 0,0 5,-5 -12.5,0 5,5 Z"
         style="fill:#000000;fill-opacity:1;fill-rule:evenodd;stroke:#000000;stroke-width:1.00000003pt;stroke-opacity:1"
         transform="matrix(0.4,0,0,0.4,4,0)"
         inkscape:connector-curvature="0" /></marker><clipPath
       clipPathUnits="userSpaceOnUse"
       id="clipPath1895"><path
         d="M 0,2168 H 1760 V 0 H 0 Z"
         id="path1893"
         inkscape:connector-curvature="0" /></clipPath></defs><g
     id="g1885"
     inkscape:groupmode="layer"
     inkscape:label="ink_ext_XXXXXX"
     transform="matrix(1.3333333,0,0,-1.3333333,-2.2700463,283.99207)">






<g
   id="g2366"><path
     inkscape:connector-curvature="0"
     id="path1903"
     d="M 27.831109,77.184929 168.84206,66.052483"
     style="fill:none;stroke:#008000;stroke-width:0.75px;stroke-linecap:butt;stroke-linejoin:miter;stroke-opacity:1;marker-end:url(#marker2320)" /><path
     inkscape:connector-curvature="0"
     id="path1905"
     d="M 27.831109,77.184929 30.79976,211.51641"
     style="fill:none;stroke:#0000ff;stroke-width:0.75px;stroke-linecap:butt;stroke-linejoin:miter;stroke-opacity:1;marker-end:url(#marker2324)" /><path
     inkscape:connector-curvature="0"
     id="path1907"
     d="M 27.831109,77.184929 2.2264887,9.648102"
     style="fill:none;stroke:#ff0000;stroke-width:0.75px;stroke-linecap:butt;stroke-linejoin:miter;stroke-opacity:1;marker-end:url(#marker2328)" /><text
     transform="scale(1,-1)"
     id="text1911"
     y="0.14290121"
     x="10.059744"
     style="font-style:normal;font-weight:normal;font-size:15.09732056px;line-height:1.25;font-family:sans-serif;letter-spacing:0px;word-spacing:0px;fill:#ff0000;fill-opacity:1;stroke:none;stroke-width:2.8307476"
     xml:space="preserve"><tspan
       style="fill:#ff0000;stroke:none;stroke-width:2.8307476"
       y="0.14290121"
       x="10.059744"
       id="tspan1909"
       sodipodi:role="line">X</tspan></text>
<text
     transform="scale(1,-1)"
     id="text1915"
     y="-46.385159"
     x="154.15085"
     style="font-style:normal;font-weight:normal;font-size:15.09732056px;line-height:1.25;font-family:sans-serif;letter-spacing:0px;word-spacing:0px;fill:#008000;fill-opacity:1;stroke:none;stroke-width:2.8307476"
     xml:space="preserve"><tspan
       style="fill:#008000;stroke-width:2.8307476"
       y="-46.385159"
       x="154.15085"
       id="tspan1913"
       sodipodi:role="line">Y</tspan></text>
<text
     transform="scale(1,-1)"
     id="text1919"
     y="-193.77831"
     x="10.387932"
     style="font-style:normal;font-weight:normal;font-size:15.09732056px;line-height:1.25;font-family:sans-serif;letter-spacing:0px;word-spacing:0px;fill:#0000ff;fill-opacity:1;stroke:none;stroke-width:2.8307476"
     xml:space="preserve"><tspan
       style="fill:#0000ff;stroke-width:2.8307476"
       y="-193.77831"
       x="10.387932"
       id="tspan1917"
       sodipodi:role="line">Z</tspan></text>
<path
     inkscape:connector-curvature="0"
     id="path1921"
     d="M 27.831109,77.184929 122.45688,130.24958"
     style="fill:none;stroke:#000000;stroke-width:1.41732287;stroke-linecap:butt;stroke-linejoin:miter;stroke-miterlimit:4;stroke-dasharray:none;stroke-opacity:1;marker-end:url(#Arrow1Mend)" /><path
     sodipodi:open="true"
     d="m 97.965502,-105.01604 a 20.409479,20.409479 0 0 1 -13.751014,19.292791 20.409479,20.409479 0 0 1 -22.723379,-6.704485 20.409479,20.409479 0 0 1 -1.075707,-23.667376 20.409479,20.409479 0 0 1 22.021493,-8.73819"
     sodipodi:end="4.9538766"
     sodipodi:start="0"
     sodipodi:ry="20.409479"
     sodipodi:rx="20.409479"
     sodipodi:cy="-105.01604"
     sodipodi:cx="77.556023"
     sodipodi:type="arc"
     transform="scale(1,-1)"
     id="path1923"
     style="fill:none;fill-opacity:1;stroke:#000000;stroke-width:1.13385832;stroke-miterlimit:4;stroke-dasharray:1.13385829, 2.26771659;stroke-dashoffset:0;stroke-opacity:1;marker-start:url(#Arrow1Mstart)" /><g
     ns0:jacobian_sqrt="1.333333"
     ns0:alignment="middle center"
     ns0:scale="1.0"
     ns0:preamble="/home/dormon/.config/inkscape/extensions/default_packages.tex"
     ns0:text="$\\theta$"
     ns0:pdfconverter="pstoedit"
     ns0:texconverter="pdflatex"
     ns0:version="0.8.1"
     word-spacing="normal"
     letter-spacing="normal"
     font-size-adjust="none"
     font-stretch="normal"
     font-weight="normal"
     font-variant="normal"
     font-style="normal"
     stroke-miterlimit="10.433"
     xml:space="preserve"
     transform="matrix(1.333333,0,0,1.333333,-123.21683,-747.37893)"
     id="content"
     style="font-style:normal;font-variant:normal;font-weight:normal;font-stretch:normal;letter-spacing:normal;word-spacing:normal;text-anchor:start;fill:none;fill-opacity:1;fill-rule:evenodd;stroke:#000000;stroke-linecap:butt;stroke-linejoin:miter;stroke-miterlimit:10.43299961;stroke-dasharray:none;stroke-dashoffset:0;stroke-opacity:1">
<path
   id="path2218"
   d="m 153.25,662.2 v 0.07 0.06 l -0.01,0.07 v 0.08 l -0.01,0.07 v 0.08 l -0.01,0.08 -0.01,0.09 -0.02,0.08 -0.01,0.08 -0.02,0.09 -0.02,0.08 -0.02,0.09 -0.03,0.08 -0.03,0.09 -0.03,0.08 -0.03,0.08 -0.04,0.07 -0.04,0.08 -0.04,0.07 -0.05,0.06 -0.05,0.07 -0.05,0.06 -0.06,0.05 -0.06,0.05 -0.04,0.02 -0.03,0.03 -0.03,0.02 -0.04,0.01 -0.04,0.02 -0.03,0.02 -0.04,0.01 -0.04,0.01 -0.04,0.01 -0.05,0.01 -0.04,0.01 h -0.04 l -0.05,0.01 h -0.05 l -0.01,-0.22 c 0.49,0 0.55,-0.64 0.55,-1.2 0,-0.49 -0.08,-1 -0.32,-1.98 h -2.08 c 0.17,0.64 0.37,1.43 0.77,2.14 0.27,0.48 0.63,1.04 1.08,1.04 l 0.01,0.22 c -1.38,0 -2.92,-2.8 -2.92,-5.08 0,-0.93 0.29,-2.03 1.2,-2.03 v 0.21 c -0.33,0 -0.54,0.29 -0.54,1.22 0,0.41 0.06,0.99 0.32,1.96 h 2.07 c -0.11,-0.45 -0.32,-1.3 -0.7,-2.01 -0.35,-0.68 -0.72,-1.17 -1.15,-1.17 v -0.21 c 1.4,0 2.92,2.85 2.92,5.07 z"
   inkscape:connector-curvature="0"
   style="fill:#000000;stroke-width:0" />
</g><g
     style="font-style:normal;font-variant:normal;font-weight:normal;font-stretch:normal;letter-spacing:normal;word-spacing:normal;text-anchor:start;fill:none;fill-opacity:1;fill-rule:evenodd;stroke:#000000;stroke-linecap:butt;stroke-linejoin:miter;stroke-miterlimit:10.43299961;stroke-dasharray:none;stroke-dashoffset:0;stroke-opacity:1"
     id="g2283"
     transform="matrix(1.333333,0,0,1.333333,-82.384828,-742.64387)"
     xml:space="preserve"
     stroke-miterlimit="10.433"
     font-style="normal"
     font-variant="normal"
     font-weight="normal"
     font-stretch="normal"
     font-size-adjust="none"
     letter-spacing="normal"
     word-spacing="normal"
     ns0:version="0.8.1"
     ns0:texconverter="pdflatex"
     ns0:pdfconverter="pstoedit"
     ns0:text="$\\overrightarrow{e}$"
     ns0:preamble="/home/dormon/.config/inkscape/extensions/default_packages.tex"
     ns0:scale="1.0"
     ns0:alignment="middle center"
     ns0:jacobian_sqrt="1.333333">
<path
   style="fill:#000000;stroke-width:0"
   inkscape:connector-curvature="0"
   d="m 155.28,663.81 h 0.04 0.03 0.03 0.01 0.02 0.01 l 0.02,0.01 h 0.01 0.02 0.01 l 0.02,0.01 h 0.01 0.01 l 0.01,0.01 0.02,0.01 h 0.01 l 0.01,0.01 0.01,0.01 h 0.01 v 0.01 l 0.01,0.01 0.01,0.01 v 0 0.01 l 0.01,0.01 v 0 0.01 0.01 0 l 0.01,0.01 v 0.01 0.01 0 0.01 0.01 0.01 0.01 c 0,0.2 -0.18,0.2 -0.35,0.2 h -5.39 c -0.17,0 -0.35,0 -0.35,-0.2 0,-0.2 0.18,-0.2 0.35,-0.2 z"
   id="path2277" />
<path
   style="fill:#000000;stroke-width:0"
   inkscape:connector-curvature="0"
   d="m 157.03,663.81 -0.05,-0.04 -0.05,-0.04 -0.05,-0.04 -0.05,-0.04 -0.04,-0.03 -0.04,-0.04 -0.04,-0.04 -0.04,-0.04 -0.04,-0.03 -0.04,-0.04 -0.03,-0.04 -0.04,-0.03 -0.03,-0.04 -0.03,-0.03 -0.03,-0.03 -0.03,-0.04 -0.02,-0.03 -0.03,-0.03 -0.02,-0.03 -0.03,-0.03 -0.02,-0.02 -0.02,-0.03 -0.02,-0.02 -0.01,-0.03 -0.02,-0.02 -0.02,-0.02 -0.01,-0.02 -0.01,-0.02 -0.01,-0.02 -0.01,-0.02 -0.01,-0.01 -0.01,-0.01 c -0.45,-0.69 -0.53,-1.32 -0.53,-1.33 0,-0.11 0.12,-0.11 0.2,-0.11 0.17,0 0.18,0.02 0.22,0.19 0.23,0.98 0.82,1.81 1.94,2.27 0.12,0.04 0.15,0.06 0.15,0.13 0,0.07 -0.06,0.1 -0.08,0.11 -0.43,0.17 -1.64,0.66 -2.02,2.33 -0.03,0.12 -0.04,0.15 -0.21,0.15 -0.08,0 -0.2,0 -0.2,-0.12 0,-0.02 0.09,-0.64 0.51,-1.31 0.2,-0.3 0.49,-0.64 0.92,-0.96 h -7.41 c -0.18,0 -0.36,0 -0.36,-0.2 0,-0.2 0.18,-0.2 0.36,-0.2 z"
   id="path2279" />
<path
   style="fill:#000000;stroke-width:0"
   inkscape:connector-curvature="0"
   d="m 153.24,659.53 h 0.03 0.03 0.03 0.04 0.03 0.04 0.05 l 0.04,0.01 h 0.04 0.05 0.05 l 0.05,0.01 h 0.05 l 0.05,0.01 0.1,0.01 0.11,0.01 0.11,0.01 0.11,0.02 0.11,0.02 0.1,0.03 0.06,0.01 0.05,0.02 0.05,0.01 0.05,0.02 0.05,0.02 0.04,0.02 c 0.7,0.3 0.75,0.88 0.75,1.02 0,0.44 -0.38,0.85 -1.06,0.85 v -0.22 c 0.46,0 0.73,-0.29 0.73,-0.63 0,-1.03 -1.59,-1.03 -2,-1.03 h -0.41 c 0.39,1.51 1.42,1.66 1.68,1.66 v 0.22 c -1.11,0 -2.62,-0.97 -2.62,-2.71 0,-1.01 0.59,-1.79 1.57,-1.79 1.42,0 2.26,1.05 2.26,1.17 0,0.06 -0.06,0.13 -0.12,0.13 -0.05,0 -0.07,-0.02 -0.13,-0.1 -0.79,-0.99 -1.87,-0.99 -1.99,-0.99 -0.78,0 -0.87,0.84 -0.87,1.16 0,0.12 0.01,0.42 0.16,1.03 z"
   id="path2281" />
</g></g>
</g></svg>